HIERARCHY
ROOT Hips
{
	OFFSET 0.000000 0.000000 0.000000
	CHANNELS 6 Xposition Yposition Zposition Zrotation Yrotation Xrotation 
	JOINT LHipJoint
	{
		OFFSET 0.000000 0.000000 0.000000
		CHANNELS 3 Zrotation Yrotation Xrotation
		JOINT LeftUpLeg
		{
			OFFSET 1.363060 -1.794630 0.839290
			CHANNELS 3 Zrotation Yrotation Xrotation
			JOINT LeftLeg
			{
				OFFSET 2.448110 -6.726130 0.000000
				CHANNELS 3 Zrotation Yrotation Xrotation
				JOINT LeftFoot
				{
					OFFSET 2.562200 -7.039590 0.000000
					CHANNELS 3 Zrotation Yrotation Xrotation
					JOINT LeftToeBase
					{
						OFFSET 0.157640 -0.433110 2.322550
						CHANNELS 3 Zrotation Yrotation Xrotation
						End Site
						{
							OFFSET 0.000000 0.000000 0.000000
						}
					}
				}
			}
		}
	}
	JOINT RHipJoint
	{
		OFFSET 0.000000 0.000000 0.000000
		CHANNELS 3 Zrotation Yrotation Xrotation
		JOINT RightUpLeg
		{
			OFFSET -1.305520 -1.794630 0.839290
			CHANNELS 3 Zrotation Yrotation Xrotation
			JOINT RightLeg
			{
				OFFSET -2.542530 -6.985550 0.000000
				CHANNELS 3 Zrotation Yrotation Xrotation
				JOINT RightFoot
				{
					OFFSET -2.568260 -7.056230 0.000000
					CHANNELS 3 Zrotation Yrotation Xrotation
					JOINT RightToeBase
					{
						OFFSET -0.164730 -0.452590 2.363150
						CHANNELS 3 Zrotation Yrotation Xrotation
						End Site
						{
							OFFSET 0.000000 0.000000 0.000000
						}
					}
				}
			}
		}
	}
	JOINT LowerBack
	{
		OFFSET 0.000000 0.000000 0.000000
		CHANNELS 3 Zrotation Yrotation Xrotation
		JOINT Spine
		{
			OFFSET 0.028270 2.035590 -0.193380
			CHANNELS 3 Zrotation Yrotation Xrotation
			JOINT Spine1
			{
				OFFSET 0.056720 2.048850 -0.042750
				CHANNELS 3 Zrotation Yrotation Xrotation
				JOINT Neck
				{
					OFFSET 0.000000 0.000000 0.000000
					CHANNELS 3 Zrotation Yrotation Xrotation
					JOINT Neck1
					{
						OFFSET -0.054170 1.746240 0.172020
						CHANNELS 3 Zrotation Yrotation Xrotation
						JOINT Head
						{
							OFFSET 0.104070 1.761360 -0.123970
							CHANNELS 3 Zrotation Yrotation Xrotation
							End Site
							{
								OFFSET 0.000000 0.000000 0.000000
							}
						}
					}
				}
				JOINT LeftShoulder
				{
					OFFSET 0.000000 0.000000 0.000000
					CHANNELS 3 Zrotation Yrotation Xrotation
					JOINT LeftArm
					{
						OFFSET 3.362410 1.200890 -0.311210
						CHANNELS 3 Zrotation Yrotation Xrotation
						JOINT LeftForeArm
						{
							OFFSET 4.983000 -0.000000 -0.000000
							CHANNELS 3 Zrotation Yrotation Xrotation
							JOINT LeftHand
							{
								OFFSET 3.483560 -0.000000 -0.000000
								CHANNELS 3 Zrotation Yrotation Xrotation
								JOINT LeftFingerBase
								{
									OFFSET 0.000000 0.000000 0.000000
									CHANNELS 3 Zrotation Yrotation Xrotation
									JOINT LeftHandIndex1
									{
										OFFSET 0.715260 -0.000000 -0.000000
										CHANNELS 3 Zrotation Yrotation Xrotation
										End Site
										{
											OFFSET 0.000000 0.000000 0.000000
										}
									}
								}
								JOINT LThumb
								{
									OFFSET 0.000000 0.000000 0.000000
									CHANNELS 3 Zrotation Yrotation Xrotation
									End Site
									{
										OFFSET 0.000000 0.000000 0.000000
									}
								}
							}
						}
					}
				}
				JOINT RightShoulder
				{
					OFFSET 0.000000 0.000000 0.000000
					CHANNELS 3 Zrotation Yrotation Xrotation
					JOINT RightArm
					{
						OFFSET -3.136600 1.374050 -0.404650
						CHANNELS 3 Zrotation Yrotation Xrotation
						JOINT RightForeArm
						{
							OFFSET -5.241900 -0.000000 -0.000000
							CHANNELS 3 Zrotation Yrotation Xrotation
							JOINT RightHand
							{
								OFFSET -3.444170 -0.000000 -0.000000
								CHANNELS 3 Zrotation Yrotation Xrotation
								JOINT RightFingerBase
								{
									OFFSET 0.000000 0.000000 0.000000
									CHANNELS 3 Zrotation Yrotation Xrotation
									JOINT RightHandIndex1
									{
										OFFSET -0.622530 -0.000000 -0.000000
										CHANNELS 3 Zrotation Yrotation Xrotation
										End Site
										{
											OFFSET 0.000000 0.000000 0.000000
										}
									}
								}
								JOINT RThumb
								{
									OFFSET 0.000000 0.000000 0.000000
									CHANNELS 3 Zrotation Yrotation Xrotation
									End Site
									{
										OFFSET 0.000000 0.000000 0.000000
									}
								}
							}
						}
					}
				}
			}
		}
	}
}
MOTION
Frames: 4
Frame Time: 0.008333
6.111000 18.096343 8.455861 179.443360 0.284149 -173.373008 -2.907869 2.425637 3.333100 -15.193038 -7.049802 -0.476969 0.008585 0.312873 2.352858 -1.153304 9.902674 -6.825639 0.090800 -1.943400 -5.349200 -1.153562 -2.345132 0.966016 18.266070 13.781381 -0.345803 -1.647583 -2.616378 9.921111 0.768225 -17.413366 -13.138702 -0.593400 -4.931700 13.713800 1.300177 0.333365 -3.947789 0.114040 0.154856 4.709393 -2.818531 -0.157605 -1.438614 -5.843597 -3.653512 -16.264828 2.635801 -4.280341 10.870448 1.050500 -2.213900 6.714800 -2.116859 -2.131409 1.015148 -74.734716 -7.746892 50.082516 140.347497 -49.647078 -102.706105 1.746101 -0.996458 13.088284 28.514644 20.331918 10.350100 -7.125000 0.000000 0.000000 -2.213400 53.620200 -0.469300 0.362469 1.513957 -0.376806 77.512902 5.038513 46.120156 -140.269440 49.152245 -101.007869 0.746961 -0.909530 10.264563 -34.755425 42.982562 -26.202100 7.125000 0.000000 0.000000 1.073100 19.270900 1.367400 
6.110044 18.095004 8.452896 179.472338 0.341947 -173.354059 -2.898310 2.426226 3.331738 -15.193367 -6.923831 -0.281291 -0.002716 0.166515 1.932680 -1.188010 10.118611 -6.637452 0.076500 -1.784600 -4.910700 -1.152568 -2.344989 0.964629 18.263655 13.866212 -0.365120 -1.651482 -2.638856 9.984694 0.780220 -17.516503 -13.158086 -0.524100 -4.639300 12.882700 1.266565 0.312556 -3.925233 0.162570 0.126768 4.631729 -2.743164 -0.172825 -1.465531 -5.699793 -3.578904 -16.470862 2.368488 -4.193747 11.333986 0.972600 -2.189900 6.862000 -2.068057 -2.135296 1.053374 -73.540639 -8.249618 47.880591 141.475699 -48.961602 -103.272790 1.746568 -1.012306 14.371611 30.157605 20.032647 10.933700 -7.125000 0.000000 0.000000 -0.434800 53.620300 -0.092200 0.304166 1.508150 -0.369007 76.220609 5.327225 44.079740 -141.431174 48.494582 -101.679681 0.789470 -1.069205 11.311319 -54.234572 46.821322 -46.425200 7.125000 0.000000 0.000000 -6.065700 31.672500 -8.374200 
6.108227 18.093761 8.449550 179.472769 0.238355 -173.395930 -2.885996 2.429678 3.335557 -15.210462 -6.861745 0.260697 -0.021077 -0.144441 1.039214 -1.251970 10.521507 -6.233494 0.086600 -1.898200 -5.224500 -1.143515 -2.343332 0.960255 18.267455 13.775840 -0.357548 -1.657164 -2.692225 10.127976 0.765617 -17.518617 -13.507486 -0.505200 -4.556500 12.647800 1.224257 0.266735 -3.866416 0.218362 0.066669 4.558356 -2.666152 -0.202306 -1.511137 -5.511682 -3.536234 -16.495093 1.997101 -4.159427 11.610118 0.858200 -2.199900 6.931000 -2.007308 -2.141173 1.093057 -72.334621 -8.603252 45.629240 142.348031 -48.404683 -103.700920 1.726379 -1.072349 15.469349 32.239844 18.642634 11.172300 -7.125000 0.000000 0.000000 2.010000 52.549300 0.373600 0.224120 1.497325 -0.384999 74.828510 5.600739 42.180225 -142.603300 47.766909 -102.547397 0.723098 -0.982869 10.948437 -32.093056 43.027193 -24.063400 7.125000 0.000000 0.000000 2.374200 18.488900 3.006600 
6.107749 18.089650 8.448115 179.418544 0.132226 -173.441109 -2.885168 2.429206 3.333435 -15.266564 -6.959634 0.330147 -0.020359 -0.145353 1.039614 -1.253952 10.532729 -6.227826 0.119900 -2.232200 -6.147900 -1.130915 -2.339401 0.958605 18.225716 13.670376 -0.335735 -1.662817 -2.734491 10.236635 0.724224 -17.313761 -13.808731 -0.563200 -4.806900 13.358600 1.119824 0.211959 -3.779698 0.249710 -0.017851 4.516565 -2.548196 -0.249104 -1.556271 -5.473663 -3.533994 -16.480529 1.829045 -4.160392 11.705492 0.819700 -2.216200 6.950500 -1.939295 -2.132409 1.127767 -70.983039 -8.873155 43.345221 143.164734 -47.820171 -104.138826 1.685983 -1.105537 16.183996 32.464992 17.549366 10.691500 -7.125000 0.000000 0.000000 2.436600 51.368600 0.382400 0.162235 1.476375 -0.385728 73.326356 5.931113 40.202268 -143.418282 47.273877 -102.974183 0.790494 -1.130648 11.957467 -49.028941 46.284114 -40.876400 7.125000 0.000000 0.000000 -4.091700 28.549600 -5.558700 
